
<svg width="260" height="180" viewBox="0 0 384 304" fill="none" xmlns="http://www.w3.org/2000/svg">
<g opacity="0.4">
<path d="M164 143.862C170.627 143.862 176 138.49 176 131.862C176 125.235 170.627 119.862 164 119.862C157.373 119.862 152 125.235 152 131.862C152 138.49 157.373 143.862 164 143.862Z" fill="#ABABAB"/>
<path fill-rule="evenodd" clip-rule="evenodd" d="M153.345 95.9141C139.299 95.9141 127.914 107.3 127.914 121.345V182.38C127.914 196.425 139.299 207.811 153.345 207.811H219.52C219.996 206.392 220.799 205.059 221.929 203.929L224.444 201.414C225.225 200.633 225.225 199.367 224.444 198.586L223.496 197.638H153.345C150.993 197.638 148.766 197.106 146.777 196.156L180 162.933L200.464 183.398C202.417 185.35 205.583 185.35 207.536 183.398C209.488 181.445 209.488 178.279 207.536 176.327L199.071 167.862L220 146.933L245.914 172.847V180.387C249.041 178.538 252.959 178.538 256.086 180.387V121.345C256.086 107.3 244.7 95.9141 230.655 95.9141H153.345ZM138.086 121.345C138.086 112.918 144.918 106.086 153.345 106.086H230.655C239.082 106.086 245.914 112.918 245.914 121.345V158.705L223.535 136.327C221.583 134.374 218.417 134.374 216.464 136.327L192 160.791L183.536 152.327C182.598 151.389 181.326 150.862 180 150.862C178.674 150.862 177.402 151.389 176.464 152.327L139.658 189.133C138.652 187.097 138.086 184.804 138.086 182.38V121.345Z" fill="#ABABAB"/>
<path d="M254.536 185.464C252.583 183.512 249.417 183.512 247.464 185.464L240 192.929L232.536 185.464C230.583 183.512 227.417 183.512 225.464 185.464C223.512 187.417 223.512 190.583 225.464 192.536L232.929 200L225.464 207.464C223.512 209.417 223.512 212.583 225.464 214.536C227.417 216.488 230.583 216.488 232.536 214.536L240 207.071L247.464 214.536C249.417 216.488 252.583 216.488 254.536 214.536C256.488 212.583 256.488 209.417 254.536 207.464L247.071 200L254.536 192.536C256.488 190.583 256.488 187.417 254.536 185.464Z" fill="#ABABAB"/>
</g>
</svg>
